<mxfile host="app.diagrams.net" agent="Mozilla/5.0 (X11; Linux x86_64) AppleWebKit/537.36 (KHTML, like Gecko) Chrome/134.0.0.0 Safari/537.36" version="26.1.1">
  <diagram name="Page-1" id="yB2vBZzXFC-plw25RrgX">
    <mxGraphModel grid="1" page="1" gridSize="10" guides="1" tooltips="1" connect="1" arrows="1" fold="1" pageScale="1" pageWidth="850" pageHeight="1100" math="0" shadow="0">
      <root>
        <mxCell id="0" />
        <mxCell id="1" parent="0" />
        <mxCell id="V5lHKjBANtMKgaCOk_Js-1" style="edgeStyle=orthogonalEdgeStyle;shape=connector;rounded=0;orthogonalLoop=1;jettySize=auto;html=1;entryX=0;entryY=0.5;entryDx=0;entryDy=0;strokeColor=default;align=center;verticalAlign=middle;fontFamily=Helvetica;fontSize=11;fontColor=default;labelBackgroundColor=default;startFill=0;endArrow=none;startArrow=ERmandOne;" edge="1" parent="1" source="V5lHKjBANtMKgaCOk_Js-2" target="V5lHKjBANtMKgaCOk_Js-9">
          <mxGeometry relative="1" as="geometry" />
        </mxCell>
        <mxCell id="V5lHKjBANtMKgaCOk_Js-2" value="universities" style="rounded=0;whiteSpace=wrap;html=1;fillColor=#e3c800;fontColor=#000000;strokeColor=#B09500;" vertex="1" parent="1">
          <mxGeometry x="905" y="360" width="120" height="60" as="geometry" />
        </mxCell>
        <mxCell id="V5lHKjBANtMKgaCOk_Js-3" style="edgeStyle=orthogonalEdgeStyle;shape=connector;rounded=0;orthogonalLoop=1;jettySize=auto;html=1;entryX=0;entryY=0.5;entryDx=0;entryDy=0;strokeColor=default;align=center;verticalAlign=middle;fontFamily=Helvetica;fontSize=11;fontColor=default;labelBackgroundColor=default;startFill=0;endArrow=none;exitX=0.5;exitY=1;exitDx=0;exitDy=0;startArrow=ERoneToMany;" edge="1" parent="1" source="V5lHKjBANtMKgaCOk_Js-7" target="V5lHKjBANtMKgaCOk_Js-18">
          <mxGeometry relative="1" as="geometry">
            <Array as="points">
              <mxPoint x="1330" y="470" />
            </Array>
          </mxGeometry>
        </mxCell>
        <mxCell id="V5lHKjBANtMKgaCOk_Js-4" style="edgeStyle=orthogonalEdgeStyle;shape=connector;rounded=0;orthogonalLoop=1;jettySize=auto;html=1;entryX=0;entryY=0.5;entryDx=0;entryDy=0;strokeColor=default;align=center;verticalAlign=middle;fontFamily=Helvetica;fontSize=11;fontColor=default;labelBackgroundColor=default;startFill=0;endArrow=none;startArrow=ERoneToMany;" edge="1" parent="1" source="V5lHKjBANtMKgaCOk_Js-7" target="V5lHKjBANtMKgaCOk_Js-13">
          <mxGeometry relative="1" as="geometry" />
        </mxCell>
        <mxCell id="V5lHKjBANtMKgaCOk_Js-5" style="edgeStyle=none;shape=connector;rounded=0;orthogonalLoop=1;jettySize=auto;html=1;entryX=0.5;entryY=1;entryDx=0;entryDy=0;strokeColor=default;align=center;verticalAlign=middle;fontFamily=Helvetica;fontSize=11;fontColor=default;labelBackgroundColor=default;startFill=0;endArrow=none;" edge="1" parent="1" source="V5lHKjBANtMKgaCOk_Js-7" target="V5lHKjBANtMKgaCOk_Js-21">
          <mxGeometry relative="1" as="geometry" />
        </mxCell>
        <mxCell id="V5lHKjBANtMKgaCOk_Js-6" style="edgeStyle=none;shape=connector;rounded=0;orthogonalLoop=1;jettySize=auto;html=1;entryX=1;entryY=1;entryDx=0;entryDy=0;strokeColor=default;align=center;verticalAlign=middle;fontFamily=Helvetica;fontSize=11;fontColor=default;labelBackgroundColor=default;startFill=0;endArrow=none;" edge="1" parent="1" source="V5lHKjBANtMKgaCOk_Js-7" target="V5lHKjBANtMKgaCOk_Js-20">
          <mxGeometry relative="1" as="geometry" />
        </mxCell>
        <mxCell id="V5lHKjBANtMKgaCOk_Js-7" value="uni_subjects" style="rounded=0;whiteSpace=wrap;html=1;fillColor=#e3c800;fontColor=#000000;strokeColor=#B09500;" vertex="1" parent="1">
          <mxGeometry x="1270" y="360" width="120" height="60" as="geometry" />
        </mxCell>
        <mxCell id="V5lHKjBANtMKgaCOk_Js-8" style="edgeStyle=orthogonalEdgeStyle;shape=connector;rounded=0;orthogonalLoop=1;jettySize=auto;html=1;entryX=0;entryY=0.5;entryDx=0;entryDy=0;strokeColor=default;align=center;verticalAlign=middle;fontFamily=Helvetica;fontSize=11;fontColor=default;labelBackgroundColor=default;startFill=0;endArrow=ERoneToMany;endFill=0;" edge="1" parent="1" source="V5lHKjBANtMKgaCOk_Js-9" target="V5lHKjBANtMKgaCOk_Js-7">
          <mxGeometry relative="1" as="geometry" />
        </mxCell>
        <mxCell id="V5lHKjBANtMKgaCOk_Js-9" value="has" style="shape=rhombus;perimeter=rhombusPerimeter;whiteSpace=wrap;html=1;align=center;fillColor=#e3c800;fontColor=#000000;strokeColor=#B09500;" vertex="1" parent="1">
          <mxGeometry x="1090" y="360" width="120" height="60" as="geometry" />
        </mxCell>
        <mxCell id="V5lHKjBANtMKgaCOk_Js-10" style="rounded=0;orthogonalLoop=1;jettySize=auto;html=1;endArrow=none;startFill=0;" edge="1" parent="1" source="V5lHKjBANtMKgaCOk_Js-11" target="V5lHKjBANtMKgaCOk_Js-23">
          <mxGeometry relative="1" as="geometry" />
        </mxCell>
        <mxCell id="V5lHKjBANtMKgaCOk_Js-11" value="subjects" style="rounded=0;whiteSpace=wrap;html=1;fillColor=#e3c800;fontColor=#000000;strokeColor=#B09500;" vertex="1" parent="1">
          <mxGeometry x="1590" y="360" width="120" height="60" as="geometry" />
        </mxCell>
        <mxCell id="V5lHKjBANtMKgaCOk_Js-12" style="edgeStyle=orthogonalEdgeStyle;shape=connector;rounded=0;orthogonalLoop=1;jettySize=auto;html=1;entryX=0;entryY=0.5;entryDx=0;entryDy=0;strokeColor=default;align=center;verticalAlign=middle;fontFamily=Helvetica;fontSize=11;fontColor=default;labelBackgroundColor=default;startFill=0;endArrow=ERmandOne;endFill=0;" edge="1" parent="1" source="V5lHKjBANtMKgaCOk_Js-13" target="V5lHKjBANtMKgaCOk_Js-11">
          <mxGeometry relative="1" as="geometry" />
        </mxCell>
        <mxCell id="V5lHKjBANtMKgaCOk_Js-13" value="contains" style="shape=rhombus;perimeter=rhombusPerimeter;whiteSpace=wrap;html=1;align=center;fillColor=#e3c800;fontColor=#000000;strokeColor=#B09500;" vertex="1" parent="1">
          <mxGeometry x="1440" y="360" width="120" height="60" as="geometry" />
        </mxCell>
        <mxCell id="V5lHKjBANtMKgaCOk_Js-14" style="edgeStyle=none;shape=connector;rounded=0;orthogonalLoop=1;jettySize=auto;html=1;entryX=0.5;entryY=1;entryDx=0;entryDy=0;strokeColor=default;align=center;verticalAlign=middle;fontFamily=Helvetica;fontSize=11;fontColor=default;labelBackgroundColor=default;startFill=0;endArrow=none;" edge="1" parent="1" source="V5lHKjBANtMKgaCOk_Js-16" target="V5lHKjBANtMKgaCOk_Js-24">
          <mxGeometry relative="1" as="geometry" />
        </mxCell>
        <mxCell id="V5lHKjBANtMKgaCOk_Js-15" style="edgeStyle=none;shape=connector;rounded=0;orthogonalLoop=1;jettySize=auto;html=1;entryX=0;entryY=1;entryDx=0;entryDy=0;strokeColor=default;align=center;verticalAlign=middle;fontFamily=Helvetica;fontSize=11;fontColor=default;labelBackgroundColor=default;startFill=0;endArrow=none;" edge="1" parent="1" source="V5lHKjBANtMKgaCOk_Js-16" target="V5lHKjBANtMKgaCOk_Js-25">
          <mxGeometry relative="1" as="geometry" />
        </mxCell>
        <mxCell id="V5lHKjBANtMKgaCOk_Js-16" value="uni_sub_topics" style="rounded=0;whiteSpace=wrap;html=1;fillColor=#e3c800;fontColor=#000000;strokeColor=#B09500;" vertex="1" parent="1">
          <mxGeometry x="1830" y="360" width="120" height="60" as="geometry" />
        </mxCell>
        <mxCell id="V5lHKjBANtMKgaCOk_Js-17" style="edgeStyle=orthogonalEdgeStyle;shape=connector;rounded=0;orthogonalLoop=1;jettySize=auto;html=1;entryX=0;entryY=0.5;entryDx=0;entryDy=0;strokeColor=default;align=center;verticalAlign=middle;fontFamily=Helvetica;fontSize=11;fontColor=default;labelBackgroundColor=default;startFill=0;endArrow=ERmandOne;exitX=1;exitY=0.5;exitDx=0;exitDy=0;endFill=0;" edge="1" parent="1" source="V5lHKjBANtMKgaCOk_Js-18" target="V5lHKjBANtMKgaCOk_Js-16">
          <mxGeometry relative="1" as="geometry">
            <mxPoint x="1780" y="440" as="sourcePoint" />
          </mxGeometry>
        </mxCell>
        <mxCell id="V5lHKjBANtMKgaCOk_Js-18" value="has" style="shape=rhombus;perimeter=rhombusPerimeter;whiteSpace=wrap;html=1;align=center;fillColor=#e3c800;fontColor=#000000;strokeColor=#B09500;" vertex="1" parent="1">
          <mxGeometry x="1570" y="440" width="120" height="60" as="geometry" />
        </mxCell>
        <mxCell id="V5lHKjBANtMKgaCOk_Js-19" value="users" style="rounded=0;whiteSpace=wrap;html=1;fillColor=#e3c800;fontColor=#000000;strokeColor=#B09500;" vertex="1" parent="1">
          <mxGeometry x="580" y="360" width="120" height="60" as="geometry" />
        </mxCell>
        <mxCell id="V5lHKjBANtMKgaCOk_Js-20" value="uni_id" style="ellipse;whiteSpace=wrap;html=1;align=center;" vertex="1" parent="1">
          <mxGeometry x="1390" y="250" width="100" height="40" as="geometry" />
        </mxCell>
        <mxCell id="V5lHKjBANtMKgaCOk_Js-21" value="sub_id" style="ellipse;whiteSpace=wrap;html=1;align=center;" vertex="1" parent="1">
          <mxGeometry x="1320" y="290" width="100" height="40" as="geometry" />
        </mxCell>
        <mxCell id="V5lHKjBANtMKgaCOk_Js-22" value="Ex: Math, ...." style="rounded=0;whiteSpace=wrap;html=1;fillColor=#60a917;fontColor=#ffffff;strokeColor=#2D7600;" vertex="1" parent="1">
          <mxGeometry x="1645" y="210" width="120" height="60" as="geometry" />
        </mxCell>
        <mxCell id="V5lHKjBANtMKgaCOk_Js-23" value="id" style="ellipse;whiteSpace=wrap;html=1;align=center;fontStyle=4" vertex="1" parent="1">
          <mxGeometry x="1640" y="300" width="100" height="40" as="geometry" />
        </mxCell>
        <mxCell id="V5lHKjBANtMKgaCOk_Js-24" value="uni_subjects_id" style="ellipse;whiteSpace=wrap;html=1;align=center;" vertex="1" parent="1">
          <mxGeometry x="1780" y="290" width="100" height="40" as="geometry" />
        </mxCell>
        <mxCell id="V5lHKjBANtMKgaCOk_Js-25" value="topic_id" style="ellipse;whiteSpace=wrap;html=1;align=center;" vertex="1" parent="1">
          <mxGeometry x="1880" y="300" width="100" height="40" as="geometry" />
        </mxCell>
        <mxCell id="V5lHKjBANtMKgaCOk_Js-26" value="Ex: Math at CADT, ...." style="rounded=0;whiteSpace=wrap;html=1;fillColor=#60a917;fontColor=#ffffff;strokeColor=#2D7600;" vertex="1" parent="1">
          <mxGeometry x="1200" y="430" width="120" height="60" as="geometry" />
        </mxCell>
        <mxCell id="V5lHKjBANtMKgaCOk_Js-27" value="&lt;u&gt;id&lt;/u&gt;" style="ellipse;whiteSpace=wrap;html=1;align=center;" vertex="1" parent="1">
          <mxGeometry x="440" y="250" width="100" height="40" as="geometry" />
        </mxCell>
        <mxCell id="V5lHKjBANtMKgaCOk_Js-67" style="edgeStyle=none;shape=connector;rounded=0;orthogonalLoop=1;jettySize=auto;html=1;entryX=0;entryY=0;entryDx=0;entryDy=0;strokeColor=default;align=center;verticalAlign=middle;fontFamily=Helvetica;fontSize=11;fontColor=default;labelBackgroundColor=default;startFill=0;endArrow=none;" edge="1" parent="1" source="V5lHKjBANtMKgaCOk_Js-28" target="V5lHKjBANtMKgaCOk_Js-19">
          <mxGeometry relative="1" as="geometry" />
        </mxCell>
        <mxCell id="V5lHKjBANtMKgaCOk_Js-28" value="email" style="ellipse;whiteSpace=wrap;html=1;align=center;" vertex="1" parent="1">
          <mxGeometry x="390" y="300" width="100" height="40" as="geometry" />
        </mxCell>
        <mxCell id="V5lHKjBANtMKgaCOk_Js-66" style="edgeStyle=none;shape=connector;rounded=0;orthogonalLoop=1;jettySize=auto;html=1;entryX=0;entryY=0.25;entryDx=0;entryDy=0;strokeColor=default;align=center;verticalAlign=middle;fontFamily=Helvetica;fontSize=11;fontColor=default;labelBackgroundColor=default;startFill=0;endArrow=none;" edge="1" parent="1" source="V5lHKjBANtMKgaCOk_Js-29" target="V5lHKjBANtMKgaCOk_Js-19">
          <mxGeometry relative="1" as="geometry" />
        </mxCell>
        <mxCell id="V5lHKjBANtMKgaCOk_Js-29" value="password" style="ellipse;whiteSpace=wrap;html=1;align=center;" vertex="1" parent="1">
          <mxGeometry x="375" y="350" width="100" height="40" as="geometry" />
        </mxCell>
        <mxCell id="V5lHKjBANtMKgaCOk_Js-65" style="edgeStyle=none;shape=connector;rounded=0;orthogonalLoop=1;jettySize=auto;html=1;entryX=0;entryY=0.25;entryDx=0;entryDy=0;strokeColor=default;align=center;verticalAlign=middle;fontFamily=Helvetica;fontSize=11;fontColor=default;labelBackgroundColor=default;startFill=0;endArrow=none;" edge="1" parent="1" source="V5lHKjBANtMKgaCOk_Js-30" target="V5lHKjBANtMKgaCOk_Js-19">
          <mxGeometry relative="1" as="geometry" />
        </mxCell>
        <mxCell id="V5lHKjBANtMKgaCOk_Js-30" value="username" style="ellipse;whiteSpace=wrap;html=1;align=center;" vertex="1" parent="1">
          <mxGeometry x="390" y="390" width="100" height="40" as="geometry" />
        </mxCell>
        <mxCell id="V5lHKjBANtMKgaCOk_Js-64" style="edgeStyle=none;shape=connector;rounded=0;orthogonalLoop=1;jettySize=auto;html=1;entryX=0;entryY=0.5;entryDx=0;entryDy=0;strokeColor=default;align=center;verticalAlign=middle;fontFamily=Helvetica;fontSize=11;fontColor=default;labelBackgroundColor=default;startFill=0;endArrow=none;" edge="1" parent="1" source="V5lHKjBANtMKgaCOk_Js-31" target="V5lHKjBANtMKgaCOk_Js-19">
          <mxGeometry relative="1" as="geometry" />
        </mxCell>
        <mxCell id="V5lHKjBANtMKgaCOk_Js-31" value="phone_number" style="ellipse;whiteSpace=wrap;html=1;align=center;fontStyle=0;fontFamily=Helvetica;fontSize=11;fontColor=default;labelBackgroundColor=default;" vertex="1" parent="1">
          <mxGeometry x="410" y="435" width="100" height="40" as="geometry" />
        </mxCell>
        <mxCell id="V5lHKjBANtMKgaCOk_Js-32" value="id" style="ellipse;whiteSpace=wrap;html=1;align=center;fontStyle=4" vertex="1" parent="1">
          <mxGeometry x="860" y="260" width="100" height="40" as="geometry" />
        </mxCell>
        <mxCell id="V5lHKjBANtMKgaCOk_Js-33" style="edgeStyle=none;shape=connector;rounded=0;orthogonalLoop=1;jettySize=auto;html=1;entryX=0.296;entryY=0.04;entryDx=0;entryDy=0;entryPerimeter=0;strokeColor=default;align=center;verticalAlign=middle;fontFamily=Helvetica;fontSize=11;fontColor=default;labelBackgroundColor=default;startFill=0;endArrow=none;" edge="1" parent="1" source="V5lHKjBANtMKgaCOk_Js-32" target="V5lHKjBANtMKgaCOk_Js-2">
          <mxGeometry relative="1" as="geometry" />
        </mxCell>
        <mxCell id="V5lHKjBANtMKgaCOk_Js-34" value="name" style="ellipse;whiteSpace=wrap;html=1;align=center;" vertex="1" parent="1">
          <mxGeometry x="1004.89" y="290" width="100" height="40" as="geometry" />
        </mxCell>
        <mxCell id="V5lHKjBANtMKgaCOk_Js-35" style="edgeStyle=none;shape=connector;rounded=0;orthogonalLoop=1;jettySize=auto;html=1;entryX=0.649;entryY=0.021;entryDx=0;entryDy=0;entryPerimeter=0;strokeColor=default;align=center;verticalAlign=middle;fontFamily=Helvetica;fontSize=11;fontColor=default;labelBackgroundColor=default;startFill=0;endArrow=none;" edge="1" parent="1" source="V5lHKjBANtMKgaCOk_Js-34" target="V5lHKjBANtMKgaCOk_Js-2">
          <mxGeometry relative="1" as="geometry" />
        </mxCell>
        <mxCell id="V5lHKjBANtMKgaCOk_Js-36" style="edgeStyle=none;shape=connector;rounded=0;orthogonalLoop=1;jettySize=auto;html=1;entryX=0.5;entryY=0;entryDx=0;entryDy=0;strokeColor=default;align=center;verticalAlign=middle;fontFamily=Helvetica;fontSize=11;fontColor=default;labelBackgroundColor=default;startFill=0;endArrow=none;" edge="1" parent="1" source="V5lHKjBANtMKgaCOk_Js-37" target="V5lHKjBANtMKgaCOk_Js-2">
          <mxGeometry relative="1" as="geometry" />
        </mxCell>
        <mxCell id="V5lHKjBANtMKgaCOk_Js-37" value="description" style="ellipse;whiteSpace=wrap;html=1;align=center;" vertex="1" parent="1">
          <mxGeometry x="960" y="250" width="100" height="40" as="geometry" />
        </mxCell>
        <mxCell id="V5lHKjBANtMKgaCOk_Js-38" value="sub_name" style="ellipse;whiteSpace=wrap;html=1;align=center;" vertex="1" parent="1">
          <mxGeometry x="1530" y="290" width="100" height="40" as="geometry" />
        </mxCell>
        <mxCell id="V5lHKjBANtMKgaCOk_Js-39" style="edgeStyle=none;shape=connector;rounded=0;orthogonalLoop=1;jettySize=auto;html=1;entryX=0.5;entryY=0;entryDx=0;entryDy=0;strokeColor=default;align=center;verticalAlign=middle;fontFamily=Helvetica;fontSize=11;fontColor=default;labelBackgroundColor=default;startFill=0;endArrow=none;" edge="1" parent="1" source="V5lHKjBANtMKgaCOk_Js-38" target="V5lHKjBANtMKgaCOk_Js-11">
          <mxGeometry relative="1" as="geometry" />
        </mxCell>
        <mxCell id="V5lHKjBANtMKgaCOk_Js-40" value="Ex:CADT, ITC ...." style="rounded=0;whiteSpace=wrap;html=1;fillColor=#60a917;fontColor=#ffffff;strokeColor=#2D7600;" vertex="1" parent="1">
          <mxGeometry x="905" y="430" width="120" height="60" as="geometry" />
        </mxCell>
        <mxCell id="V5lHKjBANtMKgaCOk_Js-41" value="Ex:Math at CADT on Limit topic, ...." style="rounded=0;whiteSpace=wrap;html=1;fillColor=#60a917;fontColor=#ffffff;strokeColor=#2D7600;" vertex="1" parent="1">
          <mxGeometry x="1680" y="490" width="120" height="60" as="geometry" />
        </mxCell>
        <mxCell id="V5lHKjBANtMKgaCOk_Js-42" style="edgeStyle=none;shape=connector;rounded=0;orthogonalLoop=1;jettySize=auto;html=1;entryX=0.25;entryY=0;entryDx=0;entryDy=0;strokeColor=default;align=center;verticalAlign=middle;fontFamily=Helvetica;fontSize=11;fontColor=default;labelBackgroundColor=default;startFill=0;endArrow=none;" edge="1" parent="1" source="V5lHKjBANtMKgaCOk_Js-43" target="V5lHKjBANtMKgaCOk_Js-7">
          <mxGeometry relative="1" as="geometry" />
        </mxCell>
        <mxCell id="V5lHKjBANtMKgaCOk_Js-43" value="&lt;u&gt;id&lt;/u&gt;" style="ellipse;whiteSpace=wrap;html=1;align=center;" vertex="1" parent="1">
          <mxGeometry x="1239.8899999999999" y="260" width="100" height="40" as="geometry" />
        </mxCell>
        <mxCell id="V5lHKjBANtMKgaCOk_Js-44" style="edgeStyle=orthogonalEdgeStyle;rounded=0;orthogonalLoop=1;jettySize=auto;html=1;entryX=0;entryY=0.5;entryDx=0;entryDy=0;endArrow=ERoneToMany;startFill=0;endFill=0;startArrow=ERone;exitX=1;exitY=0.5;exitDx=0;exitDy=0;" edge="1" parent="1" source="V5lHKjBANtMKgaCOk_Js-19" target="V5lHKjBANtMKgaCOk_Js-45">
          <mxGeometry relative="1" as="geometry">
            <mxPoint x="710" y="355" as="sourcePoint" />
          </mxGeometry>
        </mxCell>
        <mxCell id="V5lHKjBANtMKgaCOk_Js-45" value="selects&lt;div&gt;&lt;i&gt;user_uni&lt;/i&gt;&lt;/div&gt;" style="shape=rhombus;perimeter=rhombusPerimeter;whiteSpace=wrap;html=1;align=center;fillColor=#e3c800;fontColor=#000000;strokeColor=#B09500;" vertex="1" parent="1">
          <mxGeometry x="740" y="360" width="120" height="60" as="geometry" />
        </mxCell>
        <mxCell id="V5lHKjBANtMKgaCOk_Js-46" style="edgeStyle=orthogonalEdgeStyle;rounded=0;orthogonalLoop=1;jettySize=auto;html=1;entryX=0;entryY=0.5;entryDx=0;entryDy=0;endArrow=ERone;startFill=0;exitX=1;exitY=0.5;exitDx=0;exitDy=0;startArrow=ERoneToMany;endFill=0;" edge="1" parent="1" source="V5lHKjBANtMKgaCOk_Js-45" target="V5lHKjBANtMKgaCOk_Js-2">
          <mxGeometry relative="1" as="geometry">
            <mxPoint x="660" y="395" as="sourcePoint" />
            <mxPoint x="900" y="355" as="targetPoint" />
          </mxGeometry>
        </mxCell>
        <mxCell id="V5lHKjBANtMKgaCOk_Js-47" value="user_id" style="ellipse;whiteSpace=wrap;html=1;align=center;fontStyle=0" vertex="1" parent="1">
          <mxGeometry x="680" y="270" width="100" height="40" as="geometry" />
        </mxCell>
        <mxCell id="V5lHKjBANtMKgaCOk_Js-61" style="edgeStyle=none;shape=connector;rounded=0;orthogonalLoop=1;jettySize=auto;html=1;entryX=0.5;entryY=0;entryDx=0;entryDy=0;strokeColor=default;align=center;verticalAlign=middle;fontFamily=Helvetica;fontSize=11;fontColor=default;labelBackgroundColor=default;startFill=0;endArrow=none;" edge="1" parent="1" source="V5lHKjBANtMKgaCOk_Js-48" target="V5lHKjBANtMKgaCOk_Js-45">
          <mxGeometry relative="1" as="geometry" />
        </mxCell>
        <mxCell id="V5lHKjBANtMKgaCOk_Js-48" value="university_id" style="ellipse;whiteSpace=wrap;html=1;align=center;" vertex="1" parent="1">
          <mxGeometry x="770" y="290" width="100" height="40" as="geometry" />
        </mxCell>
        <mxCell id="V5lHKjBANtMKgaCOk_Js-49" value="store user history of university preferences&lt;div&gt;User A selects CADT&lt;/div&gt;" style="rounded=0;whiteSpace=wrap;html=1;fillColor=#60a917;fontColor=#ffffff;strokeColor=#2D7600;" vertex="1" parent="1">
          <mxGeometry x="740" y="430" width="120" height="50" as="geometry" />
        </mxCell>
        <mxCell id="V5lHKjBANtMKgaCOk_Js-63" style="edgeStyle=none;shape=connector;rounded=0;orthogonalLoop=1;jettySize=auto;html=1;entryX=0;entryY=1;entryDx=0;entryDy=0;strokeColor=default;align=center;verticalAlign=middle;fontFamily=Helvetica;fontSize=11;fontColor=default;labelBackgroundColor=default;startFill=0;endArrow=none;" edge="1" parent="1" source="V5lHKjBANtMKgaCOk_Js-51" target="V5lHKjBANtMKgaCOk_Js-19">
          <mxGeometry relative="1" as="geometry" />
        </mxCell>
        <mxCell id="V5lHKjBANtMKgaCOk_Js-51" value="is_active" style="ellipse;whiteSpace=wrap;html=1;align=center;fontStyle=0;fontFamily=Helvetica;fontSize=11;fontColor=default;labelBackgroundColor=default;" vertex="1" parent="1">
          <mxGeometry x="450" y="480" width="100" height="40" as="geometry" />
        </mxCell>
        <mxCell id="V5lHKjBANtMKgaCOk_Js-52" style="edgeStyle=none;shape=connector;rounded=0;orthogonalLoop=1;jettySize=auto;html=1;entryX=0.5;entryY=1;entryDx=0;entryDy=0;strokeColor=default;align=center;verticalAlign=middle;fontFamily=Helvetica;fontSize=11;fontColor=default;labelBackgroundColor=default;startFill=0;endArrow=none;" edge="1" parent="1" source="V5lHKjBANtMKgaCOk_Js-53" target="V5lHKjBANtMKgaCOk_Js-58">
          <mxGeometry relative="1" as="geometry" />
        </mxCell>
        <mxCell id="V5lHKjBANtMKgaCOk_Js-53" value="topics" style="rounded=0;whiteSpace=wrap;html=1;fillColor=#e3c800;fontColor=#000000;strokeColor=#B09500;" vertex="1" parent="1">
          <mxGeometry x="2260" y="360" width="120" height="60" as="geometry" />
        </mxCell>
        <mxCell id="V5lHKjBANtMKgaCOk_Js-54" style="edgeStyle=orthogonalEdgeStyle;shape=connector;rounded=0;orthogonalLoop=1;jettySize=auto;html=1;entryX=0;entryY=0.5;entryDx=0;entryDy=0;strokeColor=default;align=center;verticalAlign=middle;fontFamily=Helvetica;fontSize=11;fontColor=default;labelBackgroundColor=default;startFill=0;endArrow=none;exitX=1;exitY=0.5;exitDx=0;exitDy=0;startArrow=ERmandOne;" edge="1" parent="1" source="V5lHKjBANtMKgaCOk_Js-16" target="V5lHKjBANtMKgaCOk_Js-56">
          <mxGeometry relative="1" as="geometry">
            <Array as="points" />
            <mxPoint x="1960" y="390" as="sourcePoint" />
          </mxGeometry>
        </mxCell>
        <mxCell id="V5lHKjBANtMKgaCOk_Js-55" style="edgeStyle=orthogonalEdgeStyle;shape=connector;rounded=0;orthogonalLoop=1;jettySize=auto;html=1;entryX=0;entryY=0.5;entryDx=0;entryDy=0;strokeColor=default;align=center;verticalAlign=middle;fontFamily=Helvetica;fontSize=11;fontColor=default;labelBackgroundColor=default;startFill=0;endArrow=ERoneToMany;endFill=0;" edge="1" parent="1" source="V5lHKjBANtMKgaCOk_Js-56" target="V5lHKjBANtMKgaCOk_Js-53">
          <mxGeometry relative="1" as="geometry" />
        </mxCell>
        <mxCell id="V5lHKjBANtMKgaCOk_Js-56" value="belong to" style="shape=rhombus;perimeter=rhombusPerimeter;whiteSpace=wrap;html=1;align=center;fillColor=#e3c800;fontColor=#000000;strokeColor=#B09500;" vertex="1" parent="1">
          <mxGeometry x="2039.89" y="360" width="120" height="60" as="geometry" />
        </mxCell>
        <mxCell id="V5lHKjBANtMKgaCOk_Js-57" value="Ex: Limit" style="rounded=0;whiteSpace=wrap;html=1;fillColor=#60a917;fontColor=#ffffff;strokeColor=#2D7600;" vertex="1" parent="1">
          <mxGeometry x="2260" y="440" width="120" height="60" as="geometry" />
        </mxCell>
        <mxCell id="V5lHKjBANtMKgaCOk_Js-58" value="id" style="ellipse;whiteSpace=wrap;html=1;align=center;fontStyle=4" vertex="1" parent="1">
          <mxGeometry x="2190" y="250" width="100" height="40" as="geometry" />
        </mxCell>
        <mxCell id="V5lHKjBANtMKgaCOk_Js-59" value="name" style="ellipse;whiteSpace=wrap;html=1;align=center;" vertex="1" parent="1">
          <mxGeometry x="2310" y="250" width="100" height="40" as="geometry" />
        </mxCell>
        <mxCell id="V5lHKjBANtMKgaCOk_Js-60" style="edgeStyle=none;shape=connector;rounded=0;orthogonalLoop=1;jettySize=auto;html=1;strokeColor=default;align=center;verticalAlign=middle;fontFamily=Helvetica;fontSize=11;fontColor=default;labelBackgroundColor=default;startFill=0;endArrow=none;" edge="1" parent="1" source="V5lHKjBANtMKgaCOk_Js-59">
          <mxGeometry relative="1" as="geometry">
            <mxPoint x="2308" y="360" as="targetPoint" />
          </mxGeometry>
        </mxCell>
        <mxCell id="V5lHKjBANtMKgaCOk_Js-62" style="edgeStyle=none;shape=connector;rounded=0;orthogonalLoop=1;jettySize=auto;html=1;entryX=0.425;entryY=0.05;entryDx=0;entryDy=0;entryPerimeter=0;strokeColor=default;align=center;verticalAlign=middle;fontFamily=Helvetica;fontSize=11;fontColor=default;labelBackgroundColor=default;startFill=0;endArrow=none;" edge="1" parent="1" source="V5lHKjBANtMKgaCOk_Js-47" target="V5lHKjBANtMKgaCOk_Js-45">
          <mxGeometry relative="1" as="geometry" />
        </mxCell>
        <mxCell id="V5lHKjBANtMKgaCOk_Js-68" style="edgeStyle=none;shape=connector;rounded=0;orthogonalLoop=1;jettySize=auto;html=1;entryX=0.183;entryY=0.017;entryDx=0;entryDy=0;entryPerimeter=0;strokeColor=default;align=center;verticalAlign=middle;fontFamily=Helvetica;fontSize=11;fontColor=default;labelBackgroundColor=default;startFill=0;endArrow=none;" edge="1" parent="1" source="V5lHKjBANtMKgaCOk_Js-27" target="V5lHKjBANtMKgaCOk_Js-19">
          <mxGeometry relative="1" as="geometry" />
        </mxCell>
        <mxCell id="V5lHKjBANtMKgaCOk_Js-69" value="Table" style="shape=table;startSize=30;container=1;collapsible=1;childLayout=tableLayout;fixedRows=1;rowLines=0;fontStyle=1;align=center;resizeLast=1;html=1;fontFamily=Helvetica;fontSize=11;fontColor=default;labelBackgroundColor=default;" vertex="1" parent="1">
          <mxGeometry x="550" y="870" width="180" height="150" as="geometry" />
        </mxCell>
        <mxCell id="V5lHKjBANtMKgaCOk_Js-70" value="" style="shape=tableRow;horizontal=0;startSize=0;swimlaneHead=0;swimlaneBody=0;fillColor=none;collapsible=0;dropTarget=0;points=[[0,0.5],[1,0.5]];portConstraint=eastwest;top=0;left=0;right=0;bottom=1;fontFamily=Helvetica;fontSize=11;fontColor=default;labelBackgroundColor=default;" vertex="1" parent="V5lHKjBANtMKgaCOk_Js-69">
          <mxGeometry y="30" width="180" height="30" as="geometry" />
        </mxCell>
        <mxCell id="V5lHKjBANtMKgaCOk_Js-71" value="PK" style="shape=partialRectangle;connectable=0;fillColor=none;top=0;left=0;bottom=0;right=0;fontStyle=1;overflow=hidden;whiteSpace=wrap;html=1;fontFamily=Helvetica;fontSize=11;fontColor=default;labelBackgroundColor=default;" vertex="1" parent="V5lHKjBANtMKgaCOk_Js-70">
          <mxGeometry width="30" height="30" as="geometry">
            <mxRectangle width="30" height="30" as="alternateBounds" />
          </mxGeometry>
        </mxCell>
        <mxCell id="V5lHKjBANtMKgaCOk_Js-72" value="UniqueID" style="shape=partialRectangle;connectable=0;fillColor=none;top=0;left=0;bottom=0;right=0;align=left;spacingLeft=6;fontStyle=5;overflow=hidden;whiteSpace=wrap;html=1;fontFamily=Helvetica;fontSize=11;fontColor=default;labelBackgroundColor=default;" vertex="1" parent="V5lHKjBANtMKgaCOk_Js-70">
          <mxGeometry x="30" width="150" height="30" as="geometry">
            <mxRectangle width="150" height="30" as="alternateBounds" />
          </mxGeometry>
        </mxCell>
        <mxCell id="V5lHKjBANtMKgaCOk_Js-73" value="" style="shape=tableRow;horizontal=0;startSize=0;swimlaneHead=0;swimlaneBody=0;fillColor=none;collapsible=0;dropTarget=0;points=[[0,0.5],[1,0.5]];portConstraint=eastwest;top=0;left=0;right=0;bottom=0;fontFamily=Helvetica;fontSize=11;fontColor=default;labelBackgroundColor=default;" vertex="1" parent="V5lHKjBANtMKgaCOk_Js-69">
          <mxGeometry y="60" width="180" height="30" as="geometry" />
        </mxCell>
        <mxCell id="V5lHKjBANtMKgaCOk_Js-74" value="" style="shape=partialRectangle;connectable=0;fillColor=none;top=0;left=0;bottom=0;right=0;editable=1;overflow=hidden;whiteSpace=wrap;html=1;fontFamily=Helvetica;fontSize=11;fontColor=default;labelBackgroundColor=default;" vertex="1" parent="V5lHKjBANtMKgaCOk_Js-73">
          <mxGeometry width="30" height="30" as="geometry">
            <mxRectangle width="30" height="30" as="alternateBounds" />
          </mxGeometry>
        </mxCell>
        <mxCell id="V5lHKjBANtMKgaCOk_Js-75" value="Row 1" style="shape=partialRectangle;connectable=0;fillColor=none;top=0;left=0;bottom=0;right=0;align=left;spacingLeft=6;overflow=hidden;whiteSpace=wrap;html=1;fontFamily=Helvetica;fontSize=11;fontColor=default;labelBackgroundColor=default;" vertex="1" parent="V5lHKjBANtMKgaCOk_Js-73">
          <mxGeometry x="30" width="150" height="30" as="geometry">
            <mxRectangle width="150" height="30" as="alternateBounds" />
          </mxGeometry>
        </mxCell>
        <mxCell id="V5lHKjBANtMKgaCOk_Js-76" value="" style="shape=tableRow;horizontal=0;startSize=0;swimlaneHead=0;swimlaneBody=0;fillColor=none;collapsible=0;dropTarget=0;points=[[0,0.5],[1,0.5]];portConstraint=eastwest;top=0;left=0;right=0;bottom=0;fontFamily=Helvetica;fontSize=11;fontColor=default;labelBackgroundColor=default;" vertex="1" parent="V5lHKjBANtMKgaCOk_Js-69">
          <mxGeometry y="90" width="180" height="30" as="geometry" />
        </mxCell>
        <mxCell id="V5lHKjBANtMKgaCOk_Js-77" value="" style="shape=partialRectangle;connectable=0;fillColor=none;top=0;left=0;bottom=0;right=0;editable=1;overflow=hidden;whiteSpace=wrap;html=1;fontFamily=Helvetica;fontSize=11;fontColor=default;labelBackgroundColor=default;" vertex="1" parent="V5lHKjBANtMKgaCOk_Js-76">
          <mxGeometry width="30" height="30" as="geometry">
            <mxRectangle width="30" height="30" as="alternateBounds" />
          </mxGeometry>
        </mxCell>
        <mxCell id="V5lHKjBANtMKgaCOk_Js-78" value="Row 2" style="shape=partialRectangle;connectable=0;fillColor=none;top=0;left=0;bottom=0;right=0;align=left;spacingLeft=6;overflow=hidden;whiteSpace=wrap;html=1;fontFamily=Helvetica;fontSize=11;fontColor=default;labelBackgroundColor=default;" vertex="1" parent="V5lHKjBANtMKgaCOk_Js-76">
          <mxGeometry x="30" width="150" height="30" as="geometry">
            <mxRectangle width="150" height="30" as="alternateBounds" />
          </mxGeometry>
        </mxCell>
        <mxCell id="V5lHKjBANtMKgaCOk_Js-79" value="" style="shape=tableRow;horizontal=0;startSize=0;swimlaneHead=0;swimlaneBody=0;fillColor=none;collapsible=0;dropTarget=0;points=[[0,0.5],[1,0.5]];portConstraint=eastwest;top=0;left=0;right=0;bottom=0;fontFamily=Helvetica;fontSize=11;fontColor=default;labelBackgroundColor=default;" vertex="1" parent="V5lHKjBANtMKgaCOk_Js-69">
          <mxGeometry y="120" width="180" height="30" as="geometry" />
        </mxCell>
        <mxCell id="V5lHKjBANtMKgaCOk_Js-80" value="" style="shape=partialRectangle;connectable=0;fillColor=none;top=0;left=0;bottom=0;right=0;editable=1;overflow=hidden;whiteSpace=wrap;html=1;fontFamily=Helvetica;fontSize=11;fontColor=default;labelBackgroundColor=default;" vertex="1" parent="V5lHKjBANtMKgaCOk_Js-79">
          <mxGeometry width="30" height="30" as="geometry">
            <mxRectangle width="30" height="30" as="alternateBounds" />
          </mxGeometry>
        </mxCell>
        <mxCell id="V5lHKjBANtMKgaCOk_Js-81" value="Row 3" style="shape=partialRectangle;connectable=0;fillColor=none;top=0;left=0;bottom=0;right=0;align=left;spacingLeft=6;overflow=hidden;whiteSpace=wrap;html=1;fontFamily=Helvetica;fontSize=11;fontColor=default;labelBackgroundColor=default;" vertex="1" parent="V5lHKjBANtMKgaCOk_Js-79">
          <mxGeometry x="30" width="150" height="30" as="geometry">
            <mxRectangle width="150" height="30" as="alternateBounds" />
          </mxGeometry>
        </mxCell>
        <mxCell id="V5lHKjBANtMKgaCOk_Js-82" value="takes" style="shape=rhombus;perimeter=rhombusPerimeter;whiteSpace=wrap;html=1;align=center;fillColor=#e3c800;fontColor=#000000;strokeColor=#B09500;" vertex="1" parent="1">
          <mxGeometry x="220" y="680" width="120" height="60" as="geometry" />
        </mxCell>
        <mxCell id="V5lHKjBANtMKgaCOk_Js-84" value="user_exams" style="rounded=0;whiteSpace=wrap;html=1;fillColor=#e3c800;fontColor=#000000;strokeColor=#B09500;" vertex="1" parent="1">
          <mxGeometry x="220" y="602.5" width="120" height="60" as="geometry" />
        </mxCell>
        <mxCell id="V5lHKjBANtMKgaCOk_Js-91" style="edgeStyle=orthogonalEdgeStyle;shape=connector;rounded=0;orthogonalLoop=1;jettySize=auto;html=1;strokeColor=default;align=center;verticalAlign=middle;fontFamily=Helvetica;fontSize=11;fontColor=default;labelBackgroundColor=default;startFill=0;endArrow=none;exitX=0.5;exitY=1;exitDx=0;exitDy=0;entryX=0;entryY=0.5;entryDx=0;entryDy=0;startArrow=ERmandOne;" edge="1" parent="1" source="V5lHKjBANtMKgaCOk_Js-16" target="V5lHKjBANtMKgaCOk_Js-96">
          <mxGeometry relative="1" as="geometry">
            <mxPoint x="1840" y="575" as="sourcePoint" />
          </mxGeometry>
        </mxCell>
        <mxCell id="V5lHKjBANtMKgaCOk_Js-95" style="edgeStyle=orthogonalEdgeStyle;shape=connector;rounded=0;orthogonalLoop=1;jettySize=auto;html=1;entryX=0;entryY=0.5;entryDx=0;entryDy=0;strokeColor=default;align=center;verticalAlign=middle;fontFamily=Helvetica;fontSize=11;fontColor=default;labelBackgroundColor=default;startFill=0;endArrow=ERoneToMany;endFill=0;exitX=0.5;exitY=1;exitDx=0;exitDy=0;" edge="1" parent="1" source="V5lHKjBANtMKgaCOk_Js-96" target="hqT6n0vFs8RyE5XQDCDd-66">
          <mxGeometry relative="1" as="geometry">
            <mxPoint x="2110" y="790" as="targetPoint" />
          </mxGeometry>
        </mxCell>
        <mxCell id="V5lHKjBANtMKgaCOk_Js-96" value="consists of" style="shape=rhombus;perimeter=rhombusPerimeter;whiteSpace=wrap;html=1;align=center;fillColor=#e3c800;fontColor=#000000;strokeColor=#B09500;" vertex="1" parent="1">
          <mxGeometry x="1880" y="600" width="120" height="60" as="geometry" />
        </mxCell>
        <mxCell id="hqT6n0vFs8RyE5XQDCDd-18" style="edgeStyle=orthogonalEdgeStyle;shape=connector;rounded=0;orthogonalLoop=1;jettySize=auto;html=1;entryX=0;entryY=0.5;entryDx=0;entryDy=0;strokeColor=default;align=center;verticalAlign=middle;fontFamily=Helvetica;fontSize=11;fontColor=default;labelBackgroundColor=default;startFill=0;endArrow=none;startArrow=ERmandOne;" edge="1" parent="1" source="hqT6n0vFs8RyE5XQDCDd-24" target="hqT6n0vFs8RyE5XQDCDd-91">
          <mxGeometry relative="1" as="geometry">
            <mxPoint x="1190.11" y="680.5" as="targetPoint" />
          </mxGeometry>
        </mxCell>
        <mxCell id="hqT6n0vFs8RyE5XQDCDd-19" style="edgeStyle=none;shape=connector;rounded=0;orthogonalLoop=1;jettySize=auto;html=1;entryX=0.5;entryY=1;entryDx=0;entryDy=0;strokeColor=default;align=center;verticalAlign=middle;fontFamily=Helvetica;fontSize=11;fontColor=default;labelBackgroundColor=default;startFill=0;endArrow=none;" edge="1" parent="1" source="hqT6n0vFs8RyE5XQDCDd-24" target="hqT6n0vFs8RyE5XQDCDd-27">
          <mxGeometry relative="1" as="geometry" />
        </mxCell>
        <mxCell id="hqT6n0vFs8RyE5XQDCDd-20" style="edgeStyle=none;shape=connector;rounded=0;orthogonalLoop=1;jettySize=auto;html=1;entryX=0;entryY=1;entryDx=0;entryDy=0;strokeColor=default;align=center;verticalAlign=middle;fontFamily=Helvetica;fontSize=11;fontColor=default;labelBackgroundColor=default;startFill=0;endArrow=none;" edge="1" parent="1" source="hqT6n0vFs8RyE5XQDCDd-24" target="hqT6n0vFs8RyE5XQDCDd-28">
          <mxGeometry relative="1" as="geometry" />
        </mxCell>
        <mxCell id="hqT6n0vFs8RyE5XQDCDd-21" style="edgeStyle=none;shape=connector;rounded=0;orthogonalLoop=1;jettySize=auto;html=1;entryX=0.5;entryY=0;entryDx=0;entryDy=0;strokeColor=default;align=center;verticalAlign=middle;fontFamily=Helvetica;fontSize=11;fontColor=default;labelBackgroundColor=default;startFill=0;endArrow=none;" edge="1" parent="1" source="hqT6n0vFs8RyE5XQDCDd-24" target="hqT6n0vFs8RyE5XQDCDd-30">
          <mxGeometry relative="1" as="geometry" />
        </mxCell>
        <mxCell id="hqT6n0vFs8RyE5XQDCDd-22" style="edgeStyle=none;shape=connector;rounded=0;orthogonalLoop=1;jettySize=auto;html=1;entryX=0.5;entryY=0;entryDx=0;entryDy=0;strokeColor=default;align=center;verticalAlign=middle;fontFamily=Helvetica;fontSize=11;fontColor=default;labelBackgroundColor=default;startFill=0;endArrow=none;" edge="1" parent="1" source="hqT6n0vFs8RyE5XQDCDd-24" target="hqT6n0vFs8RyE5XQDCDd-31">
          <mxGeometry relative="1" as="geometry" />
        </mxCell>
        <mxCell id="hqT6n0vFs8RyE5XQDCDd-23" style="edgeStyle=none;shape=connector;rounded=0;orthogonalLoop=1;jettySize=auto;html=1;strokeColor=default;align=center;verticalAlign=middle;fontFamily=Helvetica;fontSize=11;fontColor=default;labelBackgroundColor=default;startFill=0;endArrow=none;" edge="1" parent="1" source="hqT6n0vFs8RyE5XQDCDd-24" target="hqT6n0vFs8RyE5XQDCDd-32">
          <mxGeometry relative="1" as="geometry" />
        </mxCell>
        <mxCell id="hqT6n0vFs8RyE5XQDCDd-24" value="user_exams" style="rounded=0;whiteSpace=wrap;html=1;fillColor=#e3c800;fontColor=#000000;strokeColor=#B09500;" vertex="1" parent="1">
          <mxGeometry x="920.11" y="650" width="120" height="60" as="geometry" />
        </mxCell>
        <mxCell id="hqT6n0vFs8RyE5XQDCDd-25" style="edgeStyle=orthogonalEdgeStyle;shape=connector;rounded=0;orthogonalLoop=1;jettySize=auto;html=1;entryX=0;entryY=0.5;entryDx=0;entryDy=0;strokeColor=default;align=center;verticalAlign=middle;fontFamily=Helvetica;fontSize=11;fontColor=default;labelBackgroundColor=default;startFill=0;endArrow=ERoneToMany;endFill=0;exitX=1;exitY=0.5;exitDx=0;exitDy=0;" edge="1" parent="1" source="hqT6n0vFs8RyE5XQDCDd-26" target="hqT6n0vFs8RyE5XQDCDd-24">
          <mxGeometry relative="1" as="geometry">
            <mxPoint x="860.1100000000002" y="680" as="sourcePoint" />
          </mxGeometry>
        </mxCell>
        <mxCell id="hqT6n0vFs8RyE5XQDCDd-26" value="takes" style="shape=rhombus;perimeter=rhombusPerimeter;whiteSpace=wrap;html=1;align=center;fillColor=#e3c800;fontColor=#000000;strokeColor=#B09500;" vertex="1" parent="1">
          <mxGeometry x="670" y="650" width="120" height="60" as="geometry" />
        </mxCell>
        <mxCell id="hqT6n0vFs8RyE5XQDCDd-27" value="user_id" style="ellipse;whiteSpace=wrap;html=1;align=center;" vertex="1" parent="1">
          <mxGeometry x="870.11" y="540" width="100" height="40" as="geometry" />
        </mxCell>
        <mxCell id="hqT6n0vFs8RyE5XQDCDd-28" value="uni_sub_id" style="ellipse;whiteSpace=wrap;html=1;align=center;" vertex="1" parent="1">
          <mxGeometry x="975.11" y="550" width="110" height="40" as="geometry" />
        </mxCell>
        <mxCell id="hqT6n0vFs8RyE5XQDCDd-29" value="user A tries mock exam from Math CADT" style="rounded=0;whiteSpace=wrap;html=1;fillColor=#60a917;fontColor=#ffffff;strokeColor=#2D7600;" vertex="1" parent="1">
          <mxGeometry x="1049.9999999999998" y="687.5" width="120" height="60" as="geometry" />
        </mxCell>
        <mxCell id="hqT6n0vFs8RyE5XQDCDd-30" value="score" style="ellipse;whiteSpace=wrap;html=1;align=center;" vertex="1" parent="1">
          <mxGeometry x="860.11" y="759.5" width="110" height="40" as="geometry" />
        </mxCell>
        <mxCell id="hqT6n0vFs8RyE5XQDCDd-31" value="time_spent" style="ellipse;whiteSpace=wrap;html=1;align=center;" vertex="1" parent="1">
          <mxGeometry x="975.11" y="760" width="100" height="40" as="geometry" />
        </mxCell>
        <mxCell id="hqT6n0vFs8RyE5XQDCDd-32" value="created_at" style="ellipse;whiteSpace=wrap;html=1;align=center;" vertex="1" parent="1">
          <mxGeometry x="810.11" y="707.5" width="100" height="40" as="geometry" />
        </mxCell>
        <mxCell id="hqT6n0vFs8RyE5XQDCDd-33" value="exercise_id" style="ellipse;whiteSpace=wrap;html=1;align=center;" vertex="1" parent="1">
          <mxGeometry x="1110.11" y="540" width="110" height="40" as="geometry" />
        </mxCell>
        <mxCell id="hqT6n0vFs8RyE5XQDCDd-37" style="edgeStyle=none;shape=connector;rounded=0;orthogonalLoop=1;jettySize=auto;html=1;entryX=0;entryY=0;entryDx=0;entryDy=0;strokeColor=default;align=center;verticalAlign=middle;fontFamily=Helvetica;fontSize=11;fontColor=default;labelBackgroundColor=default;startFill=0;endArrow=none;" edge="1" parent="1" source="hqT6n0vFs8RyE5XQDCDd-34" target="hqT6n0vFs8RyE5XQDCDd-24">
          <mxGeometry relative="1" as="geometry" />
        </mxCell>
        <mxCell id="hqT6n0vFs8RyE5XQDCDd-34" value="user_select-option" style="ellipse;whiteSpace=wrap;html=1;align=center;" vertex="1" parent="1">
          <mxGeometry x="770.11" y="580" width="110" height="40" as="geometry" />
        </mxCell>
        <mxCell id="hqT6n0vFs8RyE5XQDCDd-38" style="edgeStyle=none;shape=connector;rounded=0;orthogonalLoop=1;jettySize=auto;html=1;entryX=0.845;entryY=-0.027;entryDx=0;entryDy=0;entryPerimeter=0;strokeColor=default;align=center;verticalAlign=middle;fontFamily=Helvetica;fontSize=11;fontColor=default;labelBackgroundColor=default;startFill=0;endArrow=none;" edge="1" parent="1" source="hqT6n0vFs8RyE5XQDCDd-33" target="hqT6n0vFs8RyE5XQDCDd-24">
          <mxGeometry relative="1" as="geometry" />
        </mxCell>
        <mxCell id="hqT6n0vFs8RyE5XQDCDd-63" style="edgeStyle=orthogonalEdgeStyle;shape=connector;rounded=0;orthogonalLoop=1;jettySize=auto;html=1;entryX=0;entryY=0.5;entryDx=0;entryDy=0;strokeColor=default;align=center;verticalAlign=middle;fontFamily=Helvetica;fontSize=11;fontColor=default;labelBackgroundColor=default;startFill=0;endArrow=none;startArrow=ERmandOne;" edge="1" parent="1" source="hqT6n0vFs8RyE5XQDCDd-66" target="hqT6n0vFs8RyE5XQDCDd-67">
          <mxGeometry relative="1" as="geometry" />
        </mxCell>
        <mxCell id="hqT6n0vFs8RyE5XQDCDd-64" style="edgeStyle=none;shape=connector;rounded=0;orthogonalLoop=1;jettySize=auto;html=1;entryX=0.5;entryY=1;entryDx=0;entryDy=0;strokeColor=default;align=center;verticalAlign=middle;fontFamily=Helvetica;fontSize=11;fontColor=default;labelBackgroundColor=default;startFill=0;endArrow=none;" edge="1" parent="1" source="hqT6n0vFs8RyE5XQDCDd-66" target="hqT6n0vFs8RyE5XQDCDd-68">
          <mxGeometry relative="1" as="geometry" />
        </mxCell>
        <mxCell id="hqT6n0vFs8RyE5XQDCDd-65" style="edgeStyle=none;shape=connector;rounded=0;orthogonalLoop=1;jettySize=auto;html=1;entryX=0.704;entryY=1.043;entryDx=0;entryDy=0;strokeColor=default;align=center;verticalAlign=middle;fontFamily=Helvetica;fontSize=11;fontColor=default;labelBackgroundColor=default;startFill=0;endArrow=none;entryPerimeter=0;" edge="1" parent="1" source="hqT6n0vFs8RyE5XQDCDd-66" target="hqT6n0vFs8RyE5XQDCDd-69">
          <mxGeometry relative="1" as="geometry" />
        </mxCell>
        <mxCell id="hqT6n0vFs8RyE5XQDCDd-66" value="exercises" style="rounded=0;whiteSpace=wrap;html=1;fillColor=#e3c800;fontColor=#000000;strokeColor=#B09500;" vertex="1" parent="1">
          <mxGeometry x="2030" y="855" width="120" height="60" as="geometry" />
        </mxCell>
        <mxCell id="hqT6n0vFs8RyE5XQDCDd-67" value="has" style="shape=rhombus;perimeter=rhombusPerimeter;whiteSpace=wrap;html=1;align=center;fillColor=#e3c800;fontColor=#000000;strokeColor=#B09500;" vertex="1" parent="1">
          <mxGeometry x="2180" y="855" width="120" height="60" as="geometry" />
        </mxCell>
        <mxCell id="hqT6n0vFs8RyE5XQDCDd-68" value="id" style="ellipse;whiteSpace=wrap;html=1;align=center;fontStyle=4" vertex="1" parent="1">
          <mxGeometry x="1960" y="802.5" width="100" height="40" as="geometry" />
        </mxCell>
        <mxCell id="hqT6n0vFs8RyE5XQDCDd-69" value="uni_sub_topic_id" style="ellipse;whiteSpace=wrap;html=1;align=center;" vertex="1" parent="1">
          <mxGeometry x="1980" y="750" width="100" height="40" as="geometry" />
        </mxCell>
        <mxCell id="hqT6n0vFs8RyE5XQDCDd-70" value="f(x)= 4x^2 +3 is from Math at CADT on Limit topic" style="rounded=0;whiteSpace=wrap;html=1;fillColor=#60a917;fontColor=#ffffff;strokeColor=#2D7600;" vertex="1" parent="1">
          <mxGeometry x="2010" y="950" width="120" height="60" as="geometry" />
        </mxCell>
        <mxCell id="hqT6n0vFs8RyE5XQDCDd-71" style="edgeStyle=none;shape=connector;rounded=0;orthogonalLoop=1;jettySize=auto;html=1;entryX=0;entryY=1;entryDx=0;entryDy=0;strokeColor=default;align=center;verticalAlign=middle;fontFamily=Helvetica;fontSize=11;fontColor=default;labelBackgroundColor=default;endArrow=none;" edge="1" parent="1" source="hqT6n0vFs8RyE5XQDCDd-74" target="hqT6n0vFs8RyE5XQDCDd-76">
          <mxGeometry relative="1" as="geometry" />
        </mxCell>
        <mxCell id="hqT6n0vFs8RyE5XQDCDd-72" style="edgeStyle=none;shape=connector;rounded=0;orthogonalLoop=1;jettySize=auto;html=1;entryX=0;entryY=0.5;entryDx=0;entryDy=0;strokeColor=default;align=center;verticalAlign=middle;fontFamily=Helvetica;fontSize=11;fontColor=default;labelBackgroundColor=default;endArrow=none;" edge="1" parent="1" source="hqT6n0vFs8RyE5XQDCDd-74" target="hqT6n0vFs8RyE5XQDCDd-78">
          <mxGeometry relative="1" as="geometry" />
        </mxCell>
        <mxCell id="hqT6n0vFs8RyE5XQDCDd-73" style="edgeStyle=none;shape=connector;rounded=0;orthogonalLoop=1;jettySize=auto;html=1;entryX=0.5;entryY=1;entryDx=0;entryDy=0;strokeColor=default;align=center;verticalAlign=middle;fontFamily=Helvetica;fontSize=11;fontColor=default;labelBackgroundColor=default;endArrow=none;" edge="1" parent="1" source="hqT6n0vFs8RyE5XQDCDd-74" target="hqT6n0vFs8RyE5XQDCDd-77">
          <mxGeometry relative="1" as="geometry" />
        </mxCell>
        <mxCell id="hqT6n0vFs8RyE5XQDCDd-74" value="exercise_options" style="rounded=0;whiteSpace=wrap;html=1;fillColor=#e3c800;fontColor=#000000;strokeColor=#B09500;" vertex="1" parent="1">
          <mxGeometry x="2345" y="854.5" width="120" height="60" as="geometry" />
        </mxCell>
        <mxCell id="hqT6n0vFs8RyE5XQDCDd-75" style="edgeStyle=orthogonalEdgeStyle;rounded=0;orthogonalLoop=1;jettySize=auto;html=1;entryX=0;entryY=0.5;entryDx=0;entryDy=0;endArrow=ERoneToMany;endFill=0;exitX=1;exitY=0.5;exitDx=0;exitDy=0;" edge="1" parent="1" source="hqT6n0vFs8RyE5XQDCDd-67" target="hqT6n0vFs8RyE5XQDCDd-74">
          <mxGeometry relative="1" as="geometry">
            <mxPoint x="2570" y="820" as="sourcePoint" />
          </mxGeometry>
        </mxCell>
        <mxCell id="hqT6n0vFs8RyE5XQDCDd-76" value="description" style="ellipse;whiteSpace=wrap;html=1;align=center;" vertex="1" parent="1">
          <mxGeometry x="2475" y="837.5" width="100" height="40" as="geometry" />
        </mxCell>
        <mxCell id="hqT6n0vFs8RyE5XQDCDd-77" value="&lt;u&gt;id&lt;/u&gt;" style="ellipse;whiteSpace=wrap;html=1;align=center;" vertex="1" parent="1">
          <mxGeometry x="2310" y="782.5" width="100" height="40" as="geometry" />
        </mxCell>
        <mxCell id="hqT6n0vFs8RyE5XQDCDd-78" value="is_correct" style="ellipse;whiteSpace=wrap;html=1;align=center;" vertex="1" parent="1">
          <mxGeometry x="2475" y="897.5" width="100" height="40" as="geometry" />
        </mxCell>
        <mxCell id="hqT6n0vFs8RyE5XQDCDd-79" value="exercise_id" style="ellipse;whiteSpace=wrap;html=1;align=center;" vertex="1" parent="1">
          <mxGeometry x="2415" y="787.5" width="100" height="40" as="geometry" />
        </mxCell>
        <mxCell id="hqT6n0vFs8RyE5XQDCDd-80" style="edgeStyle=none;shape=connector;rounded=0;orthogonalLoop=1;jettySize=auto;html=1;entryX=0.413;entryY=0.988;entryDx=0;entryDy=0;entryPerimeter=0;strokeColor=default;align=center;verticalAlign=middle;fontFamily=Helvetica;fontSize=11;fontColor=default;labelBackgroundColor=default;endArrow=none;" edge="1" parent="1" source="hqT6n0vFs8RyE5XQDCDd-74" target="hqT6n0vFs8RyE5XQDCDd-79">
          <mxGeometry relative="1" as="geometry" />
        </mxCell>
        <mxCell id="hqT6n0vFs8RyE5XQDCDd-81" style="edgeStyle=none;shape=connector;rounded=0;orthogonalLoop=1;jettySize=auto;html=1;entryX=0;entryY=0.5;entryDx=0;entryDy=0;strokeColor=default;align=center;verticalAlign=middle;fontFamily=Helvetica;fontSize=11;fontColor=default;labelBackgroundColor=default;endArrow=none;exitX=0.663;exitY=-0.049;exitDx=0;exitDy=0;exitPerimeter=0;" edge="1" parent="1" source="hqT6n0vFs8RyE5XQDCDd-66" target="hqT6n0vFs8RyE5XQDCDd-83">
          <mxGeometry relative="1" as="geometry">
            <mxPoint x="2205" y="774" as="sourcePoint" />
          </mxGeometry>
        </mxCell>
        <mxCell id="hqT6n0vFs8RyE5XQDCDd-82" value="question_desc" style="ellipse;whiteSpace=wrap;html=1;align=center;" vertex="1" parent="1">
          <mxGeometry x="2080" y="730" width="100" height="40" as="geometry" />
        </mxCell>
        <mxCell id="hqT6n0vFs8RyE5XQDCDd-83" value="question_formula" style="ellipse;whiteSpace=wrap;html=1;align=center;" vertex="1" parent="1">
          <mxGeometry x="2160" y="762.5" width="100" height="40" as="geometry" />
        </mxCell>
        <mxCell id="hqT6n0vFs8RyE5XQDCDd-84" style="edgeStyle=none;shape=connector;rounded=0;orthogonalLoop=1;jettySize=auto;html=1;entryX=0.601;entryY=0.004;entryDx=0;entryDy=0;entryPerimeter=0;strokeColor=default;align=center;verticalAlign=middle;fontFamily=Helvetica;fontSize=11;fontColor=default;labelBackgroundColor=default;startFill=0;endArrow=none;" edge="1" parent="1" source="hqT6n0vFs8RyE5XQDCDd-82" target="hqT6n0vFs8RyE5XQDCDd-66">
          <mxGeometry relative="1" as="geometry" />
        </mxCell>
        <mxCell id="hqT6n0vFs8RyE5XQDCDd-85" value="difficulty_level" style="ellipse;whiteSpace=wrap;html=1;align=center;" vertex="1" parent="1">
          <mxGeometry x="2140" y="802.5" width="100" height="40" as="geometry" />
        </mxCell>
        <mxCell id="hqT6n0vFs8RyE5XQDCDd-86" style="edgeStyle=none;shape=connector;rounded=0;orthogonalLoop=1;jettySize=auto;html=1;entryX=0.75;entryY=0;entryDx=0;entryDy=0;strokeColor=default;align=center;verticalAlign=middle;fontFamily=Helvetica;fontSize=11;fontColor=default;labelBackgroundColor=default;startFill=0;endArrow=none;" edge="1" parent="1" source="hqT6n0vFs8RyE5XQDCDd-85" target="hqT6n0vFs8RyE5XQDCDd-66">
          <mxGeometry relative="1" as="geometry" />
        </mxCell>
        <mxCell id="hqT6n0vFs8RyE5XQDCDd-87" value="user_exam_id" style="ellipse;whiteSpace=wrap;html=1;align=center;" vertex="1" parent="1">
          <mxGeometry x="1170" y="602.5" width="100" height="40" as="geometry" />
        </mxCell>
        <mxCell id="hqT6n0vFs8RyE5XQDCDd-88" style="edgeStyle=none;shape=connector;rounded=0;orthogonalLoop=1;jettySize=auto;html=1;entryX=1.018;entryY=0.172;entryDx=0;entryDy=0;entryPerimeter=0;strokeColor=default;align=center;verticalAlign=middle;fontFamily=Helvetica;fontSize=11;fontColor=default;labelBackgroundColor=default;startFill=0;endArrow=none;" edge="1" parent="1" source="hqT6n0vFs8RyE5XQDCDd-87" target="hqT6n0vFs8RyE5XQDCDd-24">
          <mxGeometry relative="1" as="geometry" />
        </mxCell>
        <mxCell id="hqT6n0vFs8RyE5XQDCDd-90" style="edgeStyle=orthogonalEdgeStyle;shape=connector;rounded=0;orthogonalLoop=1;jettySize=auto;html=1;entryX=0;entryY=0.5;entryDx=0;entryDy=0;strokeColor=default;align=center;verticalAlign=middle;fontFamily=Helvetica;fontSize=11;fontColor=default;labelBackgroundColor=default;startFill=0;endArrow=none;startArrow=ERmandOne;" edge="1" parent="1" source="V5lHKjBANtMKgaCOk_Js-19" target="hqT6n0vFs8RyE5XQDCDd-26">
          <mxGeometry relative="1" as="geometry">
            <mxPoint x="570" y="630" as="sourcePoint" />
            <mxPoint x="590" y="828" as="targetPoint" />
          </mxGeometry>
        </mxCell>
        <mxCell id="hqT6n0vFs8RyE5XQDCDd-91" value="belong to" style="shape=rhombus;perimeter=rhombusPerimeter;whiteSpace=wrap;html=1;align=center;fillColor=#e3c800;fontColor=#000000;strokeColor=#B09500;" vertex="1" parent="1">
          <mxGeometry x="1480" y="650" width="120" height="60" as="geometry" />
        </mxCell>
        <mxCell id="hqT6n0vFs8RyE5XQDCDd-93" style="edgeStyle=orthogonalEdgeStyle;shape=connector;rounded=0;orthogonalLoop=1;jettySize=auto;html=1;entryX=0;entryY=0.75;entryDx=0;entryDy=0;strokeColor=default;align=center;verticalAlign=middle;fontFamily=Helvetica;fontSize=11;fontColor=default;labelBackgroundColor=default;startFill=0;endArrow=ERmandOne;endFill=0;exitX=1;exitY=0.5;exitDx=0;exitDy=0;" edge="1" parent="1" source="hqT6n0vFs8RyE5XQDCDd-91" target="hqT6n0vFs8RyE5XQDCDd-66">
          <mxGeometry relative="1" as="geometry">
            <mxPoint x="1700" y="720" as="sourcePoint" />
            <mxPoint x="1980" y="678" as="targetPoint" />
          </mxGeometry>
        </mxCell>
      </root>
    </mxGraphModel>
  </diagram>
</mxfile>
